<?xml version="1.0" encoding="iso-8859-1"?>
<!-- Uploaded to: SVG Repo, www.svgrepo.com, Generator: SVG Repo Mixer Tools -->
<svg version="1.1" id="Layer_1" xmlns="http://www.w3.org/2000/svg" xmlns:xlink="http://www.w3.org/1999/xlink" 
	 viewBox="0 0 512 512" xml:space="preserve">
<path style="fill:#DEDEE0;" d="M505.183,6.816C500.818,2.451,494.899,0,488.726,0L256,0.012L23.271,0.026
	C10.418,0.026,0,10.445,0,23.299v465.428C0,501.58,10.42,512,23.273,512H256h232.727C501.58,512,512,501.58,512,488.727V23.273
	C512,17.099,509.549,11.18,505.183,6.816z"/>
<path style="fill:#6E76E5;" d="M267.25,93.091c-0.228,0-0.456,0.003-0.683,0.009H256h-62.045c-0.006,0-0.009,0-0.016,0
	c-12.853,0-23.273,10.42-23.273,23.273l0,0v146.609v132.655c0,12.853,10.42,23.273,23.273,23.273s23.273-10.42,23.273-23.273
	V286.255H256h11.25c53.254,0,96.58-43.326,96.58-96.582S320.504,93.091,267.25,93.091z M267.25,239.709H256h-38.788V139.646H256
	h11.25c0.189,0,0.375-0.002,0.565-0.006c27.328,0.304,49.47,22.632,49.47,50.033C317.285,217.263,294.839,239.709,267.25,239.709z"
	/>
<path style="fill:#424EDE;" d="M193.939,93.1c-12.853,0-23.273,10.42-23.273,23.273l0,0v146.609v132.655
	c0,12.853,10.42,23.273,23.273,23.273c12.853,0,23.273-10.42,23.273-23.273V286.255H256v-46.545h-38.788V139.646H256V93.1h-62.045
	C193.949,93.1,193.946,93.1,193.939,93.1z"/>
<g>
	<rect x="217.212" y="139.652" style="fill:#D6D5D8;" width="38.788" height="100.057"/>
	<path style="fill:#D6D5D8;" d="M217.212,286.255v109.382c0,12.853-10.42,23.273-23.273,23.273
		c-12.853,0-23.273-10.42-23.273-23.273V262.982V116.373l0,0c0-12.853,10.42-23.273,23.273-23.273c0.006,0,0.009,0,0.016,0H256
		V0.012L23.271,0.026C10.418,0.026,0,10.445,0,23.299v465.428C0,501.58,10.42,512,23.273,512H256V286.255H217.212z"/>
</g>
</svg>